<svg xmlns="http://www.w3.org/2000/svg" width="693" height="575.876" viewBox="0 0 693 575.876"><g transform="translate(-664.653 -217.932)"><g transform="translate(664.653 223.352)"><path d="M408.369,180.961c-33.576,27.323-73.808-1.43-110.546,13.423-41.872,16.925-6,64.523,22.131,74.068,53.511,18.16,113.088,4.484,155.913-31.763,20.658-17.488,43.858-57.259,22.867-82.762-11.177-13.575-30.962-13.827-46.442-8.795-20.022,6.513-28.2,22.882-43.655,35.612-.087.072-.181.144-.267.217" transform="translate(-103.893 -135.844)" fill="#c2e1f3"/><path d="M572.939,654c32.918-28.117,73.823-.325,110.192-16.051,41.46-17.914,4.47-64.645-23.878-73.519-53.93-16.882-113.16-1.791-155.111,35.467-20.239,17.972-42.493,58.277-20.9,83.281,11.5,13.307,31.287,13.084,46.63,7.683,19.864-6.99,27.662-23.546,42.8-36.637.087-.073.173-.152.26-.224" transform="translate(-114.973 -197.424)" fill="#c2e1f3"/><path d="M646.466,260.895C612.5,240.5,571.385,232.807,533.386,239.579c-43.072,7.675-79.453,31.193-119.941,46.183-43.173,15.986-89.4,19.38-133.284,32.5C203.6,341.151,141.25,417.01,156,506.14c6.753,40.818,28.94,78.473,60.6,102.387,75.027,56.659,154.527,8.961,225.507-30.1,45.083-24.8,87.244-35.7,137.71-38.355,56.4-2.968,108.48-21.561,131.935-81.209,20.609-52.407,11.07-116.77-22.72-160.4A153.869,153.869,0,0,0,646.466,260.9" transform="translate(-91.872 -163.889)" fill="#c2e1f3"/><path d="M6.549-56.968V-505.2c0-11.808-6.549-22.868-17.524-29.587l-106.633-65.3a37.683,37.683,0,0,0-33.446-2.6l-118.511,48.17" transform="translate(533.832 605.416)" fill="none" stroke="#007d97" stroke-miterlimit="10" stroke-width="10.828"/><path d="M0,.8h68.8A25.864,25.864,0,0,0,94.664-25.055v-7.921" transform="translate(525.727 311.419)" fill="none" stroke="#007d97" stroke-miterlimit="10" stroke-width="10.828"/><path d="M615.372,701.007H680.4a23.549,23.549,0,0,1,23.553,23.553v17.827H590.092v-16.1a25.279,25.279,0,0,1,25.279-25.279" transform="translate(-114.165 -193.94)" fill="#007d97"/><path d="M644.907,499.474a9.787,9.787,0,0,1-9.784-9.784V468.78a9.78,9.78,0,1,1,19.56,0V489.69a9.781,9.781,0,0,1-9.776,9.784" transform="translate(-111.312 -167.56)" fill="#0fb3e6"/><path d="M407.211,238.1l-76.624-68.956a27.1,27.1,0,0,1,38.276-2.015L405.2,199.823a27.1,27.1,0,0,1,2.015,38.276" transform="translate(-102.554 -135.406)" fill="#0fb3e6"/><path d="M400.181,231.479a14.414,14.414,0,0,1-20.362,1.076l-41.951-37.749a14.415,14.415,0,0,1-1.076-20.362Zm0,0" transform="translate(-102.276 -135.059)" fill="#fff"/><path d="M.892,0H-36.619" transform="translate(534.463 148.892)" fill="none" stroke="#007d97" stroke-miterlimit="10" stroke-width="5.414"/><path d="M.892,0H-36.619" transform="translate(534.463 189.084)" fill="none" stroke="#007d97" stroke-miterlimit="10" stroke-width="5.414"/><path d="M512.425,364.359h84.6a15.224,15.224,0,0,0,15.228-15.221V299.331a15.224,15.224,0,0,0-15.228-15.221h-84.6A15.224,15.224,0,0,0,497.2,299.331v49.807a15.224,15.224,0,0,0,15.228,15.221" transform="translate(-110.323 -151.748)" fill="#0fb3e6"/><path d="M512.293,358.682a9.691,9.691,0,0,1-9.683-9.675V299.2a9.691,9.691,0,0,1,9.683-9.675h84.6a9.691,9.691,0,0,1,9.683,9.675v49.807a9.691,9.691,0,0,1-9.683,9.675Zm0,0" transform="translate(-110.072 -151.935)" fill="#aee6ff"/><path d="M598.007,307.823H541.326v3.625h56.681Zm0,0" transform="translate(-109.613 -151.576)" fill="#007d97"/><path d="M598.007,317.523H541.326v3.625h56.681Zm0,0" transform="translate(-109.613 -152.455)" fill="#007d97"/><path d="M598.007,327.23H541.326v3.625h56.681Zm0,0" transform="translate(-109.613 -153.336)" fill="#007d97"/><path d="M534.676,337.508h-24.9V302.142h24.9Zm0,0" transform="translate(-107.334 -152.06)" fill="#e1f3fa"/><path d="M694.992,433.14l5.834-3.365a2.587,2.587,0,0,0,1.3-2.253V402.8a2.616,2.616,0,0,0-.534-1.589l-4.751-6.181a2.577,2.577,0,0,1-.542-1.589v-12.1c0-.087-.007-.181-.015-.267a2.6,2.6,0,0,0-5.177,0,1.617,1.617,0,0,0-.022.267v12.1a2.616,2.616,0,0,1-.534,1.589l-4.751,6.181a2.577,2.577,0,0,0-.542,1.589v24.723a2.6,2.6,0,0,0,1.3,2.253l5.834,3.365a2.575,2.575,0,0,0,2.6,0" transform="translate(-118.986 -160.436)" fill="#51687d"/><path d="M0,0H29.43a10.3,10.3,0,0,1,10.3,10.3v5.09" transform="translate(574.707 220.513)" fill="none" stroke="#51687d" stroke-linecap="round" stroke-linejoin="round" stroke-miterlimit="10" stroke-width="5.414"/><path d="M794.537,444.55H678.6V427.09H794.537Zm0,0" transform="translate(-119.148 -163.133)" fill="#57c5ee"/><path d="M794.537,420.013H678.6v7.249H794.537Zm0,0" transform="translate(-119.148 -161.936)" fill="#aee6ff"/><path d="M771.556,458.905a4.983,4.983,0,0,1-4.982-4.982V407.076a4.982,4.982,0,1,1,9.964,0v46.847a4.983,4.983,0,0,1-4.982,4.982" transform="translate(-117.012 -162.905)" fill="#51687d"/><path d="M1.984.388s.079,1.069.029,2.9C.684,47.993-61.975,56.759-76.308,14.389a95.942,95.942,0,0,1-5.365-30.514" transform="translate(652.56 285.84)" fill="none" stroke="#8cb0d4" stroke-linecap="round" stroke-linejoin="round" stroke-miterlimit="10" stroke-width="1.805"/><path d="M755.744,458.905a4.983,4.983,0,0,1-4.982-4.982V407.076a4.982,4.982,0,1,1,9.964,0v46.847a4.983,4.983,0,0,1-4.982,4.982" transform="translate(-117.396 -162.905)" fill="#51687d"/><path d="M0,0s0,59.309,31,68.833A28.026,28.026,0,0,0,54.31,65.5c9.105-5.885,20.817-19.416,20.817-50.125" transform="translate(563.221 268.928)" fill="none" stroke="#8cb0d4" stroke-linecap="round" stroke-linejoin="round" stroke-miterlimit="10" stroke-width="1.805"/><path d="M644.907,311.932a9.787,9.787,0,0,1-9.784-9.784v-4.491a9.78,9.78,0,1,1,19.56,0v4.491a9.781,9.781,0,0,1-9.776,9.784" transform="translate(-111.312 -150.344)" fill="#0fb3e6"/><path d="M644.907,356.1a9.783,9.783,0,0,1-9.784-9.784v-4.484a9.78,9.78,0,1,1,19.56,0v4.484a9.776,9.776,0,0,1-9.776,9.784" transform="translate(-111.312 -154.517)" fill="#0fb3e6"/><path d="M.022.865-.967-35.476" transform="translate(105.094 473.117)" fill="none" stroke="#3d5e00" stroke-linecap="round" stroke-linejoin="round" stroke-miterlimit="10" stroke-width="3.609"/><path d="M210.427,422.693s18.434,40.175-3.011,99.788c-20.492,56.956-12.4,98.986-11.639,102.654a33.156,33.156,0,0,1-20.08-10.087c-40.767-42.832,13.7-116.142,13.7-116.142,26.182-37.33,21.033-76.213,21.033-76.213" transform="translate(-91.708 -176.898)" fill="#518a00"/><path d="M206.634,522.48c21.445-59.613,3.011-99.788,3.011-99.788,8.008,10.448,19.012,37.106,26.456,56.623a179.7,179.7,0,0,1,12.13,67.028c-.736,42.977-16.788,63.635-31.272,73.512a31.983,31.983,0,0,1-21.965,5.3v-.022c-.765-3.668-8.852-45.7,11.639-102.654" transform="translate(-90.925 -176.926)" fill="#7fd400"/><path d="M195.064,625.395l-.065-.238v-.022c-3.365-16.889-3.264-34.362-1.336-51.468A204.274,204.274,0,0,1,198.14,548.2a245.9,245.9,0,0,1,7.235-24.831A179.543,179.543,0,0,0,216.1,473.345a149.05,149.05,0,0,0-.7-25.633,104.27,104.27,0,0,0-5.74-25.019c3.451,7.9,5.343,16.391,6.636,24.9a148.4,148.4,0,0,1,1.227,25.828,176.039,176.039,0,0,1-10.4,50.558,241.656,241.656,0,0,0-12.044,49.858,197.644,197.644,0,0,0-1.805,25.633,148.165,148.165,0,0,0,1.747,25.655v.022Zm0,0" transform="translate(-90.937 -176.926)" fill="#d4ff91"/><path d="M0,.658,10.635-26.968" transform="translate(131.725 473.14)" fill="none" stroke="#3d5e00" stroke-linecap="round" stroke-linejoin="round" stroke-miterlimit="10" stroke-width="3.609"/><path d="M302.242,514.87c-20.059,32.052-30.182,56.284-35.272,73.144a125.776,125.776,0,0,1-36.427,57.576l-1.235,1.1h-1.913a2.511,2.511,0,0,1-2.484-2.917c12.087-70.154,77.332-128.9,77.332-128.9" transform="translate(-98.37 -181.294)" fill="#518a00"/><path d="M267.529,567.7c-3.148,6.592-6.448,13.105-9.762,19.6l-10.073,19.445-20.557,38.659c1.343-3.4,2.852-6.73,4.325-10.073l4.7-9.907c3.191-6.571,6.556-13.047,9.9-19.539,3.466-6.426,6.874-12.889,10.455-19.25s7.192-12.708,11.011-18.939" transform="translate(-98.01 -181.658)" fill="#d4ff91"/><path d="M.249.658-10.386-26.968" transform="translate(80.83 473.14)" fill="none" stroke="#3d5e00" stroke-linecap="round" stroke-linejoin="round" stroke-miterlimit="10" stroke-width="3.609"/><path d="M167.067,639.927h-3.242s-.448-.578-1.292-1.625a249.841,249.841,0,0,1-45.323-86.9c-3.849-13.1-8.564-27.785-14.253-43.294,0,0,55.02,60.327,67.671,127.579a3.607,3.607,0,0,1-3.56,4.238" transform="translate(-93.107 -180.486)" fill="#7fd400"/><path d="M131.562,563.467c3.256,6.1,6.332,12.282,9.379,18.485,3.069,6.188,6.007,12.434,8.939,18.68,2.9,6.275,5.791,12.542,8.549,18.867l4.137,9.5c1.321,3.2,2.693,6.361,3.964,9.582-1.646-3.04-3.184-6.137-4.78-9.2l-4.607-9.278c-3.069-6.188-6.007-12.441-8.939-18.687-2.888-6.275-5.784-12.542-8.542-18.874-2.787-6.318-5.538-12.65-8.1-19.077" transform="translate(-92.412 -180.955)" fill="#d4ff91"/><path d="M258.332,656.068l-6.08,20.283-.491-.152H145.634l-6.022-20.131Zm0,0" transform="translate(-92.217 -195.031)" fill="#cc4a21"/><path d="M252.11,675.874l-25.864,86.372h-54.84l-25.914-86.524H251.626Zm0,0" transform="translate(-92.074 -194.554)" fill="#d7734c"/><path d="M145.491,675.766c8.845-.766,17.69-1.162,26.536-1.437,8.845-.3,17.683-.375,26.528-.411,8.845.036,17.69.115,26.535.4s17.69.679,26.536,1.444c-8.845.772-17.69,1.17-26.536,1.444s-17.69.368-26.535.4c-8.845-.036-17.683-.115-26.528-.411-8.845-.274-17.69-.672-26.536-1.437" transform="translate(-92.074 -194.598)" fill="#992b0c"/><path d="M636.258,744.243H422.264a5.081,5.081,0,0,1-5.119-5.155,4.974,4.974,0,0,1,2.318-4.224A86.145,86.145,0,0,0,458.5,662.73v-38.1h40.637l-2.982,57.605a42.132,42.132,0,0,0,42.067,44.291H618.54a17.676,17.676,0,0,1,17.719,17.712" transform="translate(-111.305 -195.795)" fill="#57c5ee"/><path d="M565.287,726.531H536.354a42.131,42.131,0,0,1-42.067-44.291l2.982-57.605h23.582V682.1a44.45,44.45,0,0,0,3.394,17.012,45,45,0,0,0,9.632,14.412,44.417,44.417,0,0,0,31.409,13.011" transform="translate(-108.43 -195.795)" fill="#007d97"/><path d="M581.224,593.032l14.5,19.979-1.09,1.6A25,25,0,0,1,574.062,625.4h-129.7a25.019,25.019,0,0,1-20.578-10.787L415.6,602.737a6.411,6.411,0,0,0,.686-.26l20.34-8.8c4.029,6.029,10.1,9.553,16.542,9.553H564.256c6.672,0,12.939-3.776,16.968-10.2" transform="translate(-109.407 -179.917)" fill="#e1f3fa"/><path d="M570.43,579.216l10.3,14.152c-4.029,6.419-10.3,10.2-16.968,10.2H452.67c-6.433,0-12.513-3.516-16.542-9.553l33.835-14.651.339-.144Zm0,0" transform="translate(-108.896 -177.896)" fill="#57c5ee"/><path d="M549.814,552.655l19.806,27.294H469.493l69.677-30.2a8.841,8.841,0,0,1,10.643,2.9" transform="translate(-108.569 -175.57)" fill="#007d97"/><path d="M436.129,593.675a23.443,23.443,0,0,0,6.816,6.412,18.185,18.185,0,0,0,8.809,2.657l18.932-.224L508.6,602.3l37.915.209c6.3.051,12.679.26,18.911.166a18.33,18.33,0,0,0,8.693-3,24.31,24.31,0,0,0,6.607-6.643c-3.134,5.452-8.7,9.813-15.214,10.549-6.4.282-12.665.224-19,.354l-37.915.217-37.915-.217c-6.332-.1-12.614-.137-18.983-.289-6.542-.462-12.3-4.614-15.575-9.972" transform="translate(-108.896 -178.064)" fill="#057f9e"/><path d="M564.108,543.632a17.991,17.991,0,0,0-21.748-5.943L483.6,563.142l-11.834,5.119-6.693,2.9h-.022l-13.307,5.776-26.759,11.575a13.874,13.874,0,0,1-16.795-4.65L281.576,407.691c-.7.065-1.4.166-2.108.3a28.567,28.567,0,0,0-7.48,2.347,28.881,28.881,0,0,0-4.845,2.838L403.069,602.357a13.867,13.867,0,0,0,16.138,4.881,6.463,6.463,0,0,0,.686-.26l20.34-8.8,33.835-14.65.339-.144,69.678-30.2a8.84,8.84,0,0,1,10.643,2.9l19.806,27.293,10.3,14.152,14.5,19.979,44.009,60.595a29.82,29.82,0,0,0,24.174,12.3,29.483,29.483,0,0,0,3.09-.173Zm0,0" transform="translate(-110.738 -201.063)" fill="#0fb3e6"/><path d="M267.284,390.744,279.609,408.4a28.569,28.569,0,0,0-7.48,2.347l-10.852-15.712Zm0,0" transform="translate(-98.894 -159.866)" fill="#007d97"/><path d="M262.059,396.174a5.768,5.768,0,0,1-8.044-1.343l-23.922-33.525a5.761,5.761,0,0,1,1.343-8.036l13.264-9.48a23.016,23.016,0,0,0,3.372,8.1c-3.372,21.828,10.253,32.983,22.131,38.464l-2.137,1.531Zm0,0" transform="translate(-98.085 -156.86)" fill="#0fb3e6"/><path d="M682.246,681.375l-6.224-8.571-17.488-24.095L641.14,624.766l-69.122-95.159a27.246,27.246,0,0,0-3.155-3.581,24.855,24.855,0,0,0-26.824-4.621l-60.725,26.283-12.622,5.48-13.156,5.7-10.852,4.708-14.925,6.462a13.961,13.961,0,0,1-13.134-1.09,13.729,13.729,0,0,1-3.69-3.538l-31.915-44.413-43.648-60.739L308.44,420a30.319,30.319,0,0,0-6.968-6.953,30.156,30.156,0,0,0-17.293-5.5,26.622,26.622,0,0,0-2.939.151l126.6,176.174a13.886,13.886,0,0,0,16.8,4.65L451.4,576.945l13.307-5.776h.022l6.693-2.9,11.834-5.119,58.761-25.452a17.991,17.991,0,0,1,21.748,5.943l106.5,146.606a29.679,29.679,0,0,0,14.412-5.517Zm0,0" transform="translate(-112.148 -201.067)" fill="#aee6ff"/><path d="M557.068,540.409c9.184,11.993,18.2,24.109,27.2,36.24l26.8,36.521,26.456,36.774,13.105,18.477,12.939,18.593h.007l-.007.022v-.022l-13.677-18.058-13.524-18.174-26.8-36.521-26.449-36.781c-8.759-12.3-17.488-24.629-26.052-37.07" transform="translate(-112.42 -197.84)" fill="#057f9e"/><path d="M281.234,407.691c10.86,14.456,21.561,29.034,32.232,43.626l31.821,43.922,31.482,44.168,15.618,22.174,15.459,22.282-16.2-21.755-16.037-21.871-31.821-43.922-31.482-44.168c-10.426-14.766-20.831-29.554-31.077-44.457" transform="translate(-101.479 -172.2)" fill="#057f9e"/><path d="M461.386,499.731a14.112,14.112,0,0,0-7.336,14.131l4.311,37.316a8.761,8.761,0,0,1,2.022-.238,9.253,9.253,0,0,1,4.116.96,9.468,9.468,0,0,1,2.729,15.1,9.561,9.561,0,0,1-6.693,2.9h-.022l1.17,10.3a11.713,11.713,0,0,0,1.22-.152,19.257,19.257,0,0,0,16.16-18.167,17.248,17.248,0,0,0-.173-3.791l-1.769-11.668-2.794-18.564-1.552-10.26a11.4,11.4,0,0,1,5.776-11.726l42.811-23.561a28.276,28.276,0,0,0,14.564-22.557Zm0,0" transform="translate(-107.288 -173.689)" fill="#b3dceb"/><path d="M534.946,448.635l-12.853,6.975-4.628,2.534-5.906,3.2L445.1,497.46a16.973,16.973,0,0,0-8.787,16.528l1.921,20.3,2.686,28.29.043.491a19.275,19.275,0,0,0,19.214,17.5c.635,0,1.278-.036,1.935-.1l-1.17-10.3h-.13a9.47,9.47,0,0,1-2.022-18.723l-4.311-37.316A14.112,14.112,0,0,1,461.817,500l74.537-39.98a17.817,17.817,0,0,0,.108-1.877v-.383a28.294,28.294,0,0,0-1.516-9.127" transform="translate(-107.226 -173.385)" fill="#e1f3fa"/><path d="M458.38,551.177c-1.711-11.466-3.213-22.961-4.693-34.449-.166-1.444-.426-2.845-.477-4.4a14.552,14.552,0,0,1,.621-4.52,14.972,14.972,0,0,1,5.112-7.466,25.937,25.937,0,0,1,3.834-2.318l11.459-6.217c10.246-5.415,20.456-10.9,30.738-16.246l15.438-7.986c5.177-2.607,10.325-5.264,15.531-7.82h0c-5,2.924-10.065,5.74-15.105,8.614l-15.192,8.448c-10.145,5.6-20.362,11.076-30.536,16.614l-11.524,6.109a24.6,24.6,0,0,0-3.617,2.13,13.3,13.3,0,0,0-4.614,6.607,13.6,13.6,0,0,0-.607,4.036c0,1.343.217,2.809.347,4.246,1.184,11.531,2.332,23.07,3.285,34.622" transform="translate(-107.287 -171.288)" fill="#057f9e"/><path d="M467.3,564.835a9.468,9.468,0,0,0-2.729-15.1,9.252,9.252,0,0,0-4.116-.96,8.753,8.753,0,0,0-2.022.238,9.44,9.44,0,0,0-7.018,6.419,9.486,9.486,0,0,0,9.04,12.3h.152a9.524,9.524,0,0,0,6.693-2.9" transform="translate(-105.186 -174.594)" fill="#7dccee"/><path d="M563.539,491.2a18.3,18.3,0,0,0-18.123-.664l-71.534,37.511-1.552-10.26a11.394,11.394,0,0,1,5.776-11.726l42.811-23.561a28.266,28.266,0,0,0,14.564-22.557,17.783,17.783,0,0,0,.108-1.877l8.722-3.863a25.373,25.373,0,0,1,29.763,7.04l103.557,124.9s-6.058,7.567-14.9,16.441c-1.921,1.87-3.964,3.856-6.1,5.82L568.319,495.463a17.7,17.7,0,0,0-4.78-4.267" transform="translate(-113.576 -176.079)" fill="#ff4a33"/><path d="M566.172,494.534,654.479,607.47a119.233,119.233,0,0,1-20.124,15.286L565.233,527.6a27.249,27.249,0,0,0-3.155-3.581,131.67,131.67,0,0,1-.686-33.749,17.7,17.7,0,0,1,4.78,4.267" transform="translate(-111.961 -178.42)" fill="#f03519"/><path d="M563.5,490.333a131.672,131.672,0,0,0,.686,33.749,24.854,24.854,0,0,0-26.824-4.621l-60.725,26.283-2.794-18.564,71.534-37.511a18.3,18.3,0,0,1,18.123.664" transform="translate(-108.37 -171.652)" fill="#f03519"/><path d="M438.789,532.254l2.686,28.29-14.925,6.462a13.96,13.96,0,0,1-13.134-1.09l.022-.015s20.636-20.513,25.351-33.648" transform="translate(-104.179 -174.354)" fill="#f03519"/><path d="M563.443,479.256c-.628,3.733-.968,7.481-1.3,11.221-.282,3.747-.491,7.488-.549,11.235-.18,7.5.166,15,.505,22.571v.022l-.007-.022a89.388,89.388,0,0,1-2.339-22.608,86.927,86.927,0,0,1,.968-11.365,55.831,55.831,0,0,1,2.722-11.055" transform="translate(-108.229 -169.86)" fill="#ba1402"/><path d="M658.832,599.011l18.058,21.4c-15.243,9.856-26.882,23.647-26.882,23.647l-17.4-23.943a119.215,119.215,0,0,0,20.124-15.286c2.137-1.964,4.181-3.942,6.1-5.82" transform="translate(-112.341 -181.675)" fill="#ff997a"/><path d="M724.377,619.616l6.289,7.4-57.757,49.208h-.022l-6.224-8.571h.022l34.752-28.933Zm0,0" transform="translate(-119.438 -195.916)" fill="#8aa3b8"/><path d="M723.725,619.841l-22.939,19.105c-13.921-13.907-3.625-28.081-3.625-28.081,9.293-1.6,18.615.4,26.564,8.975" transform="translate(-118.786 -181.23)" fill="#b3c7de"/><path d="M701.85,638.934,667.1,667.867h-.022L649.6,643.772s11.64-13.791,26.882-23.647c6.759-4.39,14.261-7.993,21.748-9.271,0,0-10.3,14.174,3.625,28.081" transform="translate(-113.327 -184.038)" fill="#deeeff"/><path d="M301.1,291.7c3.7,5.8,5.986,14.412-1.35,24.586-3.3,4.585-8.571,9.488-16.521,14.6a5.436,5.436,0,0,0-2.838,4.78,5.288,5.288,0,0,0,.643,2.556l2.383,4.368,1.711,6.722a3.579,3.579,0,0,1-6.737,2.339l-1.516-3.386s-5.329-1.43-8.318,3.242a8.579,8.579,0,0,0-.931,6.672c1.1,4.433,4.455,11.639,14.52,6.932,0,0,18.246,17.055,3.639,31.64a63.341,63.341,0,0,1-15.943-4.968c-11.878-5.48-25.5-16.636-22.138-38.464a23.09,23.09,0,0,1-3.365-8.1c-1.921-8.9.383-23.481,28.211-35.352,0,0-.621-10.426,3.942-18.167,5.5-9.322,18.781-9.127,24.608,0" transform="translate(-98.862 -152.983)" fill="#630505"/><path d="M309.52,333.176c1.018-.881.549-3.09-1.047-4.975-1.6-1.848-3.711-2.657-4.737-1.791s-.549,3.1,1.047,4.975c1.581,1.856,3.711,2.664,4.737,1.791m1.552,52.573s10.556,12.282,15.243,16.975a27.908,27.908,0,0,0-18.889,7.394l-5.6,5.163A29.649,29.649,0,0,0,292.949,411l-7.719-14.99c14.607-14.586-3.639-31.64-3.639-31.64-10.065,4.708-13.416-2.5-14.52-6.932a8.579,8.579,0,0,1,.931-6.672c2.989-4.672,8.318-3.242,8.318-3.242l1.516,3.386a3.579,3.579,0,0,0,6.737-2.339l-1.7-6.722-2.39-4.368a5.288,5.288,0,0,1-.643-2.556,5.436,5.436,0,0,1,2.838-4.78c7.95-5.112,13.221-10.022,16.521-14.6a25.077,25.077,0,0,1,10.26,5.863,16.81,16.81,0,0,0,5.928,3.473l14.882,5.22-6.311,5.567.022.022,2.339,2.643-1.444,1.343-20.853,19.257a13.4,13.4,0,0,0,4.52,2.729c3.986,1.552,10.513,2.318,19.25-2.729a38.989,38.989,0,0,1-9.358,20.319,38.288,38.288,0,0,1-7.358,6.5" transform="translate(-99.747 -155.934)" fill="#ff997a"/><path d="M327.4,342.43l-19.741,18.658a13.4,13.4,0,0,1-4.52-2.729L323.989,339.1Zm0,0" transform="translate(-100.379 -155.104)" fill="#fff"/><path d="M307.611,327.958c1.6,1.87,2.065,4.087,1.047,4.968s-3.155.058-4.737-1.791c-1.6-1.877-2.065-4.094-1.047-4.968s3.134-.065,4.737,1.791" transform="translate(-100.063 -153.339)" fill="#630505"/><path d="M327.008,357.9a35.122,35.122,0,0,1-28.1,32.174,49.376,49.376,0,0,0,9.878-5.22,43.3,43.3,0,0,0,8.239-7.322,45.85,45.85,0,0,0,9.986-19.633" transform="translate(-100.302 -157.311)" fill="#f86345"/><path d="M298.426,351.861a10.041,10.041,0,0,1,3.812,3.213,13.107,13.107,0,0,1,2.181,4.585,14.048,14.048,0,0,1,.289,5.054,14.718,14.718,0,0,1-.505,2.448,18.83,18.83,0,0,1-.953,2.289c-.036-.838.05-1.639.058-2.433-.036-.8.043-1.581-.036-2.361a23.1,23.1,0,0,0-.643-4.542,19.756,19.756,0,0,0-1.61-4.275,22.721,22.721,0,0,0-2.592-3.978" transform="translate(-99.93 -156.124)" fill="#f86345"/><path d="M299.49,323.283a34.205,34.205,0,0,1-.635,5.076c-.159.809-.332,1.625-.549,2.441a14.587,14.587,0,0,1-.838,2.506,9.314,9.314,0,0,1-.426-5.293,10.765,10.765,0,0,1,.838-2.534,6.45,6.45,0,0,1,1.61-2.2" transform="translate(-99.82 -153.196)" fill="#f06645"/><path d="M425.721,481.048l-15.567,10.232-48.8-54.392,4.881-4.477-21-22.831a26.6,26.6,0,0,0-4.758-4.116c.152,0,23.243.13,85.246,75.584" transform="translate(-102.978 -165.007)" fill="#bdf5ff"/><path d="M346.193,409.7l21,22.831L362.309,437l-25.416,23.409L307.96,420.166a30.314,30.314,0,0,0-6.968-6.953l5.6-5.156a28.02,28.02,0,0,1,34.839-2.477,26.6,26.6,0,0,1,4.758,4.116" transform="translate(-101.063 -162.927)" fill="#bdf5ff"/><path d="M437.711,512.437l1.921,20.3c-4.715,13.134-25.351,33.648-25.351,33.648l-.022.015a13.728,13.728,0,0,1-3.69-3.538l-31.915-44.413h.022l14.008,9.083a17.618,17.618,0,0,0,18.463.411Zm0,0" transform="translate(-103.815 -173.835)" fill="#57d1d7"/><path d="M336.312,460.422c2.4-2.455,4.867-4.845,7.307-7.271s4.939-4.766,7.408-7.148c4.924-4.787,9.972-9.437,14.99-14.116l-.05,1.235c-6.217-6.571-12.2-13.365-18.3-20.037-1.523-1.682-2.924-3.459-4.542-4.939a28.354,28.354,0,0,0-5.387-3.877,28.852,28.852,0,0,0-12.824-3.61,27.258,27.258,0,0,1,13.279,2.737,29.675,29.675,0,0,1,5.776,3.8c1.783,1.509,3.264,3.235,4.852,4.838,6.137,6.643,12.4,13.163,18.441,19.907l.592.664-.65.578c-5.1,4.585-10.13,9.249-15.315,13.762-2.578,2.26-5.127,4.563-7.733,6.795s-5.192,4.491-7.841,6.686" transform="translate(-101.473 -162.926)" fill="#42bdc7"/><path d="M519.9,458.446l-5.906,3.2-66.458,36.117a16.972,16.972,0,0,0-8.787,16.528l-26.564,15.5a17.619,17.619,0,0,1-18.463-.412L379.712,520.3h-.022l-43.648-60.739,25.416-23.416,48.8,54.392L425.829,480.3,483.2,442.54a23.005,23.005,0,0,1,27.568,1.69l13.755,11.683Zm0,0" transform="translate(-105.717 -169.054)" fill="#ff997a"/><path d="M515.916,458.193c-2.809-1.906-5.307-4.036-7.856-6.094-1.256-1.047-2.534-2.043-3.82-3.025a16.626,16.626,0,0,0-4.21-2.455,8.878,8.878,0,0,1,4.961,1.227,25.311,25.311,0,0,1,4.238,2.823,30.518,30.518,0,0,1,6.686,7.524" transform="translate(-106.711 -164.611)" fill="#f86345"/><path d="M510.077,461.281a80.743,80.743,0,0,0-6.26-5.22c-1.069-.809-2.159-1.6-3.271-2.383s-2.238-1.56-3.35-2.484a17.668,17.668,0,0,1,7.733,3.386,18.689,18.689,0,0,1,3.076,2.968,10.909,10.909,0,0,1,2.072,3.733" transform="translate(-106.521 -164.948)" fill="#f86345"/><path d="M455.807,459c-4.484,3.408-9.083,6.65-13.7,9.863-4.607,3.235-9.286,6.347-13.979,9.452-4.708,3.076-9.423,6.145-14.21,9.1l-7.192,4.426c-2.433,1.415-4.831,2.888-7.293,4.253,2.231-1.719,4.534-3.336,6.794-5.011l6.91-4.852c4.607-3.235,9.293-6.347,13.979-9.452,4.708-3.076,9.423-6.145,14.21-9.1s9.582-5.906,14.484-8.679" transform="translate(-104.451 -167.34)" fill="#f86345"/><path d="M538.055,603.087H516.307V557.208h21.748Zm0,0" transform="translate(-107.445 -177.623)" fill="#cfcfcf"/><path d="M537.463,602h-20.34a5.266,5.266,0,0,0-5.271,5.264V710.979h30.875V607.263A5.265,5.265,0,0,0,537.463,602" transform="translate(-107.61 -196.344)" fill="#a8a8a8"/><path d="M0,.776A32.6,32.6,0,0,1,32.6-31.832h60.79A32.607,32.607,0,0,1,125.993.776" transform="translate(355.992 546.459)" fill="none" stroke="#515151" stroke-linecap="round" stroke-linejoin="round" stroke-miterlimit="10" stroke-width="5.414"/><path d="M474.964,528.912H582.023a12.563,12.563,0,0,1,12.564,12.564v3.856A12.564,12.564,0,0,1,582.023,557.9H474.964A12.564,12.564,0,0,1,462.4,545.331v-3.856a12.563,12.563,0,0,1,12.564-12.564" transform="translate(-109.557 -173.494)" fill="#008ffa"/><path d="M0,0V34.524" transform="translate(419.867 514.631)" fill="none" stroke="#515151" stroke-linecap="round" stroke-linejoin="round" stroke-miterlimit="10" stroke-width="5.414"/><path d="M475.878,750.461a10.213,10.213,0,1,0-10.21,10.21,10.209,10.209,0,0,0,10.21-10.21" transform="translate(-105.377 -192.987)" fill="#003d85"/><path d="M598.882,750.461a10.213,10.213,0,1,0-10.21,10.21,10.209,10.209,0,0,0,10.21-10.21" transform="translate(-109.466 -192.987)" fill="#003d85"/><path d="M537.383,750.461a10.214,10.214,0,1,0-10.217,10.21,10.215,10.215,0,0,0,10.217-10.21" transform="translate(-107.422 -192.987)" fill="#003d85"/><path d="M493.268,257.474a14.135,14.135,0,0,1-1.04-2.238,14.118,14.118,0,0,0-8.787-7.928c-6.484-2.238-6.015-7.488-6.015-7.488A6.691,6.691,0,0,0,480.5,234.3a8.19,8.19,0,0,0-3.56-6.563c-2.859-2.137-7.358-3.646-10.426,4.094,0,0-8.831-2.029-11.322-14.412,0,0-9.7,23.091-34.348,30.355A39.664,39.664,0,0,0,436.6,269.843a2.772,2.772,0,0,1,.361-.4l22.131-20.174a7.2,7.2,0,0,0,.3,1.112,6.169,6.169,0,0,0,8.3,3.451,12.956,12.956,0,0,0,5.5-4.563,106.759,106.759,0,0,1-2.238,20.492,22.644,22.644,0,0,1-2.094,5.906c.426-.108.859-.209,1.264-.339l8.614,22.3,3.451-9.062a29.361,29.361,0,0,1,21.431-18.29v-.022c-5.293-3.047-10.347-12.773-10.347-12.773" transform="translate(-106.033 -134.016)" fill="#ff9975"/><path d="M467.717,274.511c3.09-1.531,6.065-2.888,8.946-4.506,2.91-1.574,5.654-3.357,8.607-5.134a23.864,23.864,0,0,1-17.553,9.639" transform="translate(-105.699 -147.822)" fill="#f06645"/><path d="M497.135,213.086a17.094,17.094,0,0,1-4.751,4.924,39.934,39.934,0,0,0-18.21-16.571,15.862,15.862,0,0,1,4.773-6.607v-.022c2.368-1.747,5.654-2.708,10.022-.809a16.441,16.441,0,0,1,8.145,7.545c1.581,3.047,2.621,7.249.022,11.538" transform="translate(-106.127 -134.61)" fill="#630505"/><path d="M493.713,217.893a39.834,39.834,0,0,1-.412,40.06,14.809,14.809,0,0,1-1.04-2.238,14.149,14.149,0,0,0-8.787-7.935c-6.484-2.238-6.015-7.48-6.015-7.48a6.691,6.691,0,0,0,3.076-5.524,8.2,8.2,0,0,0-3.56-6.563c-2.859-2.13-7.358-3.646-10.426,4.094,0,0-8.831-2.029-11.322-14.412,0,0-9.7,23.091-34.355,30.362a39.751,39.751,0,0,1,54.63-46.933,39.934,39.934,0,0,1,18.21,16.571" transform="translate(-105.875 -134.492)" fill="#994221"/><path d="M577.748,214.368s4.773,28.463-18.275,39.677a37.67,37.67,0,0,1-41.684-6.4c-7.163-6.607-14.882-17.185-20.766-34.131,2.6-4.289,1.56-8.491-.022-11.538a16.5,16.5,0,0,0-8.145-7.545c-4.368-1.9-7.654-.939-10.022.809.282-1.09,4.989-18.766,22.261-20,7.589-.534,17.524,4.5,22.008,10.665,4.368,6.008,6.881,10.441,12.492,18.29,1.769,2.477,3.495,4.968,5.1,7.545,4.643,7.509,19.481,26.781,37.056,2.628" transform="translate(-108.915 -135.041)" fill="#994221"/><path d="M466.647,231.88a14.968,14.968,0,0,1-7.993-5.336,20.964,20.964,0,0,1-2.506-4.253c-.361-.736-.592-1.531-.888-2.3-.245-.787-.44-1.589-.664-2.383l1.408.137a53.082,53.082,0,0,1-6.924,11.488,57.365,57.365,0,0,1-9.387,9.56,47.859,47.859,0,0,1-11.481,6.859,48.435,48.435,0,0,1-12.8,3.509c2.1-.7,4.253-1.177,6.3-1.957L424.768,246c1.018-.39,1.971-.931,2.96-1.386a54.843,54.843,0,0,0,10.867-7.163,64,64,0,0,0,9.055-9.336,61.614,61.614,0,0,0,6.989-10.939l.953-1.957.462,2.1.5,2.289c.245.737.419,1.5.722,2.217a19.7,19.7,0,0,0,2.137,4.159,15.493,15.493,0,0,0,7.235,5.892" transform="translate(-104.883 -134.069)" fill="#630505"/><path d="M433.64,257.758c1.386,2.029,3.408,3.054,4.52,2.3s.888-3.018-.5-5.047-3.408-3.047-4.52-2.289-.888,3.018.5,5.04" transform="translate(-104.236 -133.165)" fill="#630505"/><path d="M431.236,248.664a6.569,6.569,0,0,1,2.542-.975,10.993,10.993,0,0,1,2.664-.144,9.383,9.383,0,0,1,5,1.791,15.2,15.2,0,0,1-2.635.166c-.852-.015-1.675-.058-2.506-.116a33.7,33.7,0,0,1-5.069-.722" transform="translate(-104.298 -133.285)" fill="#f06645"/><path d="M472.829,248.51A106.76,106.76,0,0,1,470.591,269a22.646,22.646,0,0,1-2.094,5.906c-.318.6-.657,1.17-1.018,1.726a21.964,21.964,0,0,1-5.7,5.971,15.258,15.258,0,0,1-12.816,2.412l-.931-.26a15.261,15.261,0,0,1-9.769-7.863l-2.325-4.585a3.018,3.018,0,0,1,.3-3.22,2.407,2.407,0,0,1,.361-.4l22.131-20.174a6.985,6.985,0,0,0,.3,1.112,6.169,6.169,0,0,0,8.3,3.451,12.956,12.956,0,0,0,5.5-4.563" transform="translate(-105.193 -146.91)" fill="#deeeff"/><path d="M476.544,239.48a24.239,24.239,0,0,1-4.758,11.221,12.141,12.141,0,0,1-5.156,3.776,7.261,7.261,0,0,1-6.571-.9,6.589,6.589,0,0,1-2.173-2.693,9.388,9.388,0,0,1-.693-3.271,14.748,14.748,0,0,1,1.422-6.174,33.419,33.419,0,0,1,7.018-9.957,52.342,52.342,0,0,0-3.184,5.112,32.379,32.379,0,0,0-2.513,5.372,14.927,14.927,0,0,0-.989,5.581,5.371,5.371,0,0,0,7.134,5.271,11.818,11.818,0,0,0,4.65-3.069,21.137,21.137,0,0,0,3.365-4.787,41.186,41.186,0,0,0,2.448-5.488" transform="translate(-105.404 -133.674)" fill="#51687d"/><path d="M458.651,260.677a21.871,21.871,0,0,1-3.22,5.928A42.461,42.461,0,0,1,451,271.688a49.105,49.105,0,0,1-5.119,4.368,39.576,39.576,0,0,1-5.69,3.567c1.545-1.639,3.163-3.148,4.766-4.672,1.574-1.538,3.206-3.018,4.744-4.578q2.361-2.3,4.614-4.686c1.487-1.617,2.968-3.235,4.332-5.011" transform="translate(-104.815 -147.653)" fill="#8cb0d4"/><path d="M461.529,260.677a24.4,24.4,0,0,1-2.462,14.174,21.1,21.1,0,0,1-4.34,5.914,18.863,18.863,0,0,1-6.072,3.95,37.728,37.728,0,0,0,5.018-4.932,28.851,28.851,0,0,0,3.747-5.769,38.863,38.863,0,0,0,2.549-6.434,53.559,53.559,0,0,0,1.56-6.9" transform="translate(-104.943 -147.774)" fill="#8cb0d4"/><path d="M472.739,241.281c2.455-1.018,4.693-2.722,5.5-4.961a6.716,6.716,0,0,0-1.415-6.6,9.662,9.662,0,0,0-2.809-2.3,5.162,5.162,0,0,0-3.293-.78c-2.289.339-3.993,2.737-5.293,5a13.463,13.463,0,0,1,1.552-3.776,5.976,5.976,0,0,1,3.444-2.643,6.333,6.333,0,0,1,4.4.65,10.947,10.947,0,0,1,3.408,2.657,8.684,8.684,0,0,1,1.9,3.979,7.292,7.292,0,0,1-.578,4.376,8.594,8.594,0,0,1-6.823,4.4" transform="translate(-105.542 -133.83)" fill="#f06645"/><path d="M417.165,748.7v11.769H315.782a62.344,62.344,0,0,1,2.924-11.769Zm0,0" transform="translate(-102.375 -192.782)" fill="#fff"/><path d="M417.1,710.77v38.847H318.637a53.991,53.991,0,0,1,2.5-5.863c15.351-30.94,53.555-32.983,53.555-32.983Zm0,0" transform="translate(-102.423 -193.703)" fill="#9cccfa"/><path d="M415.767,711.722H373.361V671.568h42.406Zm0,0" transform="translate(-103.161 -194.655)" fill="#ff7f63"/><path d="M339.16,654.223v.022l-9.632,40.962-41.258-9.683,10.4-42.385c4.029,1.3,21.7,6.91,40.485,11.083" transform="translate(-100.321 -195.345)" fill="#ff9975"/><path d="M331.032,694.22l-8.874,37.843L226.32,709.571c21.106-32.6,63.454-25.034,63.454-25.034Zm0,0" transform="translate(-98.787 -194.358)" fill="#9cccfa"/><path d="M322.289,731.45,319.6,742.9l-98.7-23.178a61.168,61.168,0,0,1,5.545-10.766Zm0,0" transform="translate(-98.521 -193.747)" fill="#fff"/><path d="M481.584,467.387,406.209,492.63A59.966,59.966,0,0,0,365.3,548.048l-2.433,100.315L303.44,631.878l40.919-104.365a62.811,62.811,0,0,1,41.468-37.525l82.32-23.112a54.936,54.936,0,0,1,13.437.513" transform="translate(-103.76 -180.684)" fill="#0059d9"/><path d="M363.006,644.447l-.26,11.019h-.015l-.065,3.264h-.339a227.424,227.424,0,0,1-23.395-4.137c-18.781-4.181-36.457-9.784-40.485-11.084-.556-.173-.852-.282-.852-.282l5.986-15.264Zm0,0" transform="translate(-100.922 -183.119)" fill="#003d85"/><path d="M542.648,497.093a76.816,76.816,0,0,0,21.409,12.4c-21.474,32.066-82.942,46.464-114.33,51.872a56.348,56.348,0,0,1-34.8-5.242l-7.119-3.581c9-29.7,69.425-38.89,80.126-40.276,1.343-.195,2.708-.383,4.029-.614,27.842-5.033,45.2-18.853,45.2-18.853,1.812,1.365,3.625,2.794,5.48,4.289" transform="translate(-108.053 -173.06)" fill="#005cd7"/><path d="M408.942,553.164l7.119,3.581s-15.943,12.492-10.231,102.618H361.207l.253-11.019,2.433-100.315A59.967,59.967,0,0,1,404.8,492.613L480.18,467.37c12.766,1.747,33.64,7.632,58.118,26.052,0,0-17.358,13.813-45.2,18.853-1.321.231-2.686.419-4.029.614-10.7,1.386-71.129,10.578-80.126,40.276" transform="translate(-106.587 -181.988)" fill="#0068eb"/><path d="M430.9,559.855s-4.686,60.486-8.888,97.39H404.8c-5.711-90.119,10.232-102.618,10.232-102.618a55.642,55.642,0,0,0,15.864,5.228" transform="translate(-103.827 -182.789)" fill="#005cd7"/><path d="M405.841,654.814h17.185c-.744,6.657-1.495,12.542-2.195,17.163H360.785l.347-13.9.065-3.264Zm0,0" transform="translate(-103.189 -195.062)" fill="#003d85"/><path d="M396.053,545.2c3.6,1.581,7.148,3.271,10.73,4.9,3.552,1.668,7.105,3.43,10.643,5.033a58.658,58.658,0,0,0,34.131,3.841l11.582-2.087q5.794-1.072,11.553-2.311c3.849-.758,7.683-1.646,11.524-2.484-7.48,2.448-15.105,4.448-22.788,6.188-3.834.9-7.712,1.618-11.582,2.354a58.866,58.866,0,0,1-11.878,1.184,56.3,56.3,0,0,1-23.135-5.4c-7.033-3.618-13.921-7.35-20.781-11.221" transform="translate(-105.292 -174.08)" fill="#003d85"/><path d="M361.984,625.892c.05-17.748.3-35.5.585-53.237.13-8.881.26-17.719.585-26.636a60.613,60.613,0,0,1,7.22-25.785,63.284,63.284,0,0,1,7.74-11.033,65.241,65.241,0,0,1,9.979-9.055,65.984,65.984,0,0,1,11.726-6.614c4.188-1.711,8.419-3,12.636-4.376l25.315-8.2,25.387-8.022-25.1,8.881L412.9,490.507c-4.188,1.466-8.426,2.838-12.455,4.491a64.674,64.674,0,0,0-11.365,6.513,63.34,63.34,0,0,0-9.639,8.86,61.5,61.5,0,0,0-7.452,10.744,58.848,58.848,0,0,0-7.163,25c-.4,8.809-.491,17.727-.845,26.579-.578,17.734-1.191,35.467-2,53.2" transform="translate(-104.245 -178.375)" fill="#003d85"/><path d="M588.334,518.406c-9.17,1.069-18.188-1-25.6-3.776a76.812,76.812,0,0,1-21.409-12.4c-1.856-1.495-3.668-2.924-5.48-4.289-24.478-18.42-45.352-24.3-58.118-26.052a54.867,54.867,0,0,0-13.43-.513l-1.906-64.559a30.751,30.751,0,0,0,31.835-12.239c5.805-8.275,11.668-21.178,15.863-41.28l7.675,2.917,18.42-48.226a29.328,29.328,0,0,0-2.809-26.5c38.673,53.468,54.963,236.92,54.963,236.92" transform="translate(-109.298 -158.837)" fill="#99caf8"/><path d="M348.04,302.464A69.711,69.711,0,0,1,368.886,289.1a58.262,58.262,0,0,1,10.174-3.054,6.282,6.282,0,0,1,6.758,3.264l3.451,6.462,2.607,4.9s-3.35-1.069-7.892-2.065c-4.946-1.112-11.344-2.159-16.376-1.668a13.162,13.162,0,0,0-5.264,1.408c-2.477,1.408-4.246,3.921-3.646,6.693.448,2.051,2.051,4.224,6.592,4.693l-10.434,3.82a6.628,6.628,0,0,1-6.412-1.069l-.043-.043a6.6,6.6,0,0,1-.361-9.979" transform="translate(-102.276 -150.274)" fill="#deeeff"/><path d="M376.7,256.894,361.539,332.81l9.683-76.8a2.773,2.773,0,0,1,5.5.693c-.007.065-.022.13-.029.2" transform="translate(-102.143 -148.472)" fill="#51687d"/><path d="M399.765,315.786l11.148,9.914c-6.607,12.174-27.907,19.64-27.907,19.64C379.36,338.56,377.5,334,377.5,334l-.9-.578-2.325-1.495a20.038,20.038,0,0,1-9.235-16.651l-.043-4.347-.022-1.451c-4.542-.469-6.137-2.643-6.585-4.693-.6-2.773,1.17-5.285,3.646-6.693a13.163,13.163,0,0,1,5.264-1.408c5.033-.491,11.43.556,16.376,1.668,4.542,1,7.892,2.065,7.892,2.065l3.386,6.4Zm0,0" transform="translate(-102.869 -151.959)" fill="#bdccd9"/><path d="M391.591,300.436c-1.964-.3-3.877-.708-5.8-1.054q-2.848-.65-5.755-1.04a61.98,61.98,0,0,0-11.509-.794,15.534,15.534,0,0,0-5.423,1.018,7.324,7.324,0,0,0-3.776,3.495,4.675,4.675,0,0,0,.693,4.91c1.134,1.444,3.076,2.123,4.975,2.527a8.191,8.191,0,0,1-5.639-1.906,5.825,5.825,0,0,1-1.35-6.051,8.344,8.344,0,0,1,4.383-4.571,16.791,16.791,0,0,1,6.044-1.271,46.15,46.15,0,0,1,11.863,1.249,90.425,90.425,0,0,1,11.293,3.487" transform="translate(-102.42 -150.772)" fill="#8c9eae"/><path d="M451.629,400.211a30.9,30.9,0,0,1-15.654-1.856c-27.055-10.593-45.136-38.269-53.555-53.981a83.848,83.848,0,0,0,16.16-8.044l2.469,1.625a124.893,124.893,0,0,0,5.379,11.408c7.437,14.217,22.578,38.247,45.2,50.847" transform="translate(-104.172 -156.574)" fill="#ff7f63"/><path d="M387.692,353.475c-1.076-1.523-2.08-3.09-3.119-4.65s-2.036-3.141-2.96-4.766a92.678,92.678,0,0,1-5.1-10.029l.347.419-3.1-1.971a22.191,22.191,0,0,1-3.033-2.361,20.077,20.077,0,0,1-4.462-6.188,20.569,20.569,0,0,1-1.762-7.35c-.072-1.271.05-2.5.1-3.726s.137-2.455.231-3.682c.3,2.433.339,4.946.643,7.314a19.5,19.5,0,0,0,2.188,6.758,19.824,19.824,0,0,0,7.091,7.675l3.083,2.014.238.152.108.267c1.408,3.379,2.982,6.758,4.556,10.116.773,1.69,1.719,3.285,2.52,4.968s1.661,3.336,2.433,5.04" transform="translate(-102.414 -153.053)" fill="#8c9eae"/><path d="M478.031,295.719l-14.946,39.171,10.636,4.051-9.127,20.853-14.838-13.473c3.069-24.268,28.276-50.6,28.276-50.6" transform="translate(-105.416 -152.398)" fill="#3a94d4"/><path d="M471.164,454.9a103.943,103.943,0,0,1,14.5,1.1,144.379,144.379,0,0,1,14.282,2.946,113.073,113.073,0,0,1,26.94,11.17,89.729,89.729,0,0,1,11.95,8.455c1.942,1.509,3.682,3.141,5.567,4.65s3.755,3,5.682,4.441a94.511,94.511,0,0,0,12.2,7.69c4.231,2.246,8.65,4.376,13.459,5.054a25.343,25.343,0,0,1-7.112-1.487,65.287,65.287,0,0,1-6.758-2.758,94.432,94.432,0,0,1-12.614-7.343c-4.044-2.7-7.748-5.942-11.5-8.946a88.4,88.4,0,0,0-11.82-8.159,118.071,118.071,0,0,0-26.391-11.4,141.556,141.556,0,0,0-28.391-5.408" transform="translate(-108.81 -167.487)" fill="#3a94d4"/><path d="M359.517,340.3a14.64,14.64,0,0,0,15.683-5.184c1.1-1.552,2.166-3.3,3.249-4.939L391.381,310.2l25.871-39.966a2.773,2.773,0,0,1,4.657,3.011c-.029.043-.065.094-.094.13l-28.153,38.391-14.073,19.2c-1.2,1.6-2.289,3.2-3.581,4.8a15.664,15.664,0,0,1-4.787,3.755,15.22,15.22,0,0,1-11.7.78" transform="translate(-103.157 -149.89)" fill="#51687d"/><path d="M538.113,297.835a29.242,29.242,0,0,1-1.942,10.47l-18.42,48.226-7.675-2.917L473.4,339.605l-10.636-4.051,18.4-48.233a29.446,29.446,0,0,1,56.948,10.513" transform="translate(-107.395 -150.32)" fill="#73b0f8"/><path d="M465.659,358.958l9.127-20.853,36.673,14.008c-4.2,20.1-10.065,33.005-15.863,41.28a30.751,30.751,0,0,1-31.835,12.239,31.269,31.269,0,0,1-4.946-1.538c-26.947-10.917-44.709-38.781-52.955-54.58,0,0,21.38-7.235,28.117-19.344Zm0,0" transform="translate(-106.169 -156.465)" fill="#ff9975"/><path d="M413.726,362.52c2.051,2.773,4.094,5.531,6.275,8.188,2.123,2.686,4.34,5.3,6.672,7.805a116.1,116.1,0,0,0,15,13.885,78.289,78.289,0,0,0,8.434,5.719,73.035,73.035,0,0,0,9.069,4.65,32.447,32.447,0,0,0,19.979,1.516A29.967,29.967,0,0,1,468.948,406a31.645,31.645,0,0,1-10.289-1.913,71.476,71.476,0,0,1-18.109-10.224A95.383,95.383,0,0,1,425.6,379.452a116.41,116.41,0,0,1-11.878-16.932" transform="translate(-105.233 -158.27)" fill="#f06645"/><path d="M473.414,337.917a102.714,102.714,0,0,1-11.026,25.2,89.713,89.713,0,0,1,4.664-12.968,91.469,91.469,0,0,1,6.361-12.232" transform="translate(-105.331 -155.117)" fill="#f06645"/><path d="M389.116,314.389l-10.47,3.711a6.583,6.583,0,0,1-6.412-1.126l-.043-.043a6.592,6.592,0,0,1-.26-9.979c5.993-5.415,16.824-13.351,31.193-16.08a6.332,6.332,0,0,1,6.744,3.329l11.957,23.077a24.127,24.127,0,0,0,5.177,6.73l7.849,7.127c-6.737,12.109-28.117,19.337-28.117,19.337a124.9,124.9,0,0,1-5.379-11.408l-3.22-2.108a19.99,19.99,0,0,1-9.018-16.7Zm0,0" transform="translate(-103.592 -151.742)" fill="#deeeff"/><path d="M389.137,314.386c-2.737,1.206-5.516,2.318-8.282,3.451l-2.094.816a7.229,7.229,0,0,1-2.39.448,7.323,7.323,0,0,1-4.6-1.545l-.007-.007-.05-.043-.043-.036.058.043a7.334,7.334,0,0,1-2.794-5.719,7.518,7.518,0,0,1,2.708-5.784,65.767,65.767,0,0,1,9.466-7.112,57.89,57.89,0,0,1,10.621-5.2,49.48,49.48,0,0,1,11.416-2.83,73.114,73.114,0,0,0-10.982,3.885,74.321,74.321,0,0,0-10.13,5.6,80.756,80.756,0,0,0-9.177,7.018,5.823,5.823,0,0,0-.159,8.968l.043.036.007.015.043.043-.05-.051a5.943,5.943,0,0,0,5.668,1.228l2.123-.679c2.867-.859,5.719-1.747,8.607-2.542" transform="translate(-102.814 -150.752)" fill="#8cb0d4"/><path d="M388.671,309c.224,2.874.332,5.74.484,8.607a22.8,22.8,0,0,0,1.271,8.26,19.92,19.92,0,0,0,4.3,6.968,17.975,17.975,0,0,0,3.119,2.657l3.567,2.361.246.159.108.274c1.747,4.354,3.827,8.643,5.9,12.918,2.123,4.246,4.376,8.434,6.686,12.622a112.047,112.047,0,0,1-7.856-12,107,107,0,0,1-6.426-12.874l.354.426c-1.213-.787-2.412-1.531-3.617-2.376a20.167,20.167,0,0,1-7.813-10.657,21.047,21.047,0,0,1-.8-4.368,38.271,38.271,0,0,1,.007-4.368c.144-2.867.26-5.733.477-8.607" transform="translate(-103.278 -153.417)" fill="#8cb0d4"/><path d="M93.34,760.259c28.875-.628,57.744-.9,86.626-1.35l86.619-.773c28.875-.332,57.751-.274,86.626-.4l86.626-.253,86.626.246c28.875.13,57.751.058,86.626.39l86.619.78c28.875.455,57.751.729,86.633,1.357-28.882.628-57.757.9-86.633,1.358l-86.619.773c-28.875.339-57.751.26-86.626.39l-86.626.245-86.625-.253c-28.875-.123-57.751-.058-86.626-.39l-86.619-.773c-28.882-.462-57.751-.729-86.626-1.35" transform="translate(-93.34 -192.568)" fill="#8fcad7"/></g></g></svg>